<svg xmlns="http://www.w3.org/2000/svg" width="470.063" height="278.107" viewBox="0 0 470.063 278.107">
  <g id="Group_278" data-name="Group 278" transform="translate(-736.732 -1319.5)">
    <path id="Path_113" data-name="Path 113" d="M234.534,63.2c-24.163-.859-47.205-8.627-69.165-17.179s-43.769-18-67.335-22.52c-15.162-2.913-32.528-3.324-44.74,4.818C41.53,36.16,37.721,49.641,35.667,62.19c-1.531,9.449-2.427,19.345,1.793,28.2,2.913,6.125,8.1,11.278,11.727,17.179,12.511,20.428,3.66,45.637-9.9,65.579-6.349,9.374-13.706,18.3-18.636,28.271s-7.17,21.4-2.876,31.557c4.257,10.083,14.378,17.627,25.358,22.968,22.3,10.83,48.55,13.893,74.169,15.648,56.691,3.884,113.718,2.2,170.559.523,21.026-.635,42.163-1.27,62.853-4.519,11.5-1.793,23.379-4.668,31.707-11.577,10.606-8.776,13.22-23.677,6.125-34.694-11.913-18.486-44.815-23.08-53.143-42.91-4.593-10.905.112-23.08,6.8-33.2,14.266-21.735,38.2-40.782,39.475-65.617.859-17.067-10.644-34.134-28.42-42.2C334.621,28.952,308.74,30,295,44,280.768,58.38,255.858,63.945,234.534,63.2Z" transform="translate(752.107 1323.649)" fill="#38d39f" opacity="0.1"/>
    <g id="abffebd3-2ac6-4c6b-a0d4-e62621854ed7_1_" transform="translate(816.618 1362.598)" opacity="0.6">
      <path id="Path_114" data-name="Path 114" d="M198.587,189.3s-14.31-25.342-35.854-32.628a44.132,44.132,0,0,1-22.324-16.7A77.625,77.625,0,0,1,133.8,128.1" transform="translate(-118.384 -88.322)" fill="none" stroke="#535461" stroke-miterlimit="10" stroke-width="2"/>
      <path id="Path_115" data-name="Path 115" d="M106.113,109.208c2.446,2.394,13.894,4.84,13.894,4.84s-2.81-11.344-5.256-13.738a6.182,6.182,0,1,0-8.742,8.742c0,.052.052.1.1.156Z" transform="translate(-104.175 -74.113)" fill="#38d39f"/>
      <path id="Path_116" data-name="Path 116" d="M115.71,147.264c3.33.676,14.31-3.486,14.31-3.486s-8.534-8.014-11.865-8.69a6.2,6.2,0,0,0-7.285,4.892,6.1,6.1,0,0,0,4.84,7.285Z" transform="translate(-107.319 -91.614)" fill="#38d39f"/>
      <path id="Path_117" data-name="Path 117" d="M157.906,190.261c3.226-1.093,10.564-10.2,10.564-10.2s-11.4-2.6-14.623-1.509a6.2,6.2,0,1,0,4.059,11.708Z" transform="translate(-125.994 -112.392)" fill="#38d39f"/>
      <path id="Path_118" data-name="Path 118" d="M200.4,214.59c3.382-.572,12.177-8.274,12.177-8.274s-10.772-4.475-14.154-3.955A6.194,6.194,0,0,0,200.4,214.59Z" transform="translate(-146.888 -123.919)" fill="#38d39f"/>
      <path id="Path_119" data-name="Path 119" d="M154.685,129.192c0,3.435-6.192,13.322-6.192,13.322s-6.193-9.887-6.193-13.322a6.193,6.193,0,0,1,12.385,0Z" transform="translate(-122.461 -85.876)" fill="#38d39f"/>
      <path id="Path_120" data-name="Path 120" d="M203.208,156.884c-1.041,3.278-9.887,10.876-9.887,10.876s-2.966-11.344-1.925-14.571a6.188,6.188,0,0,1,11.813,3.695Z" transform="translate(-145.902 -98.268)" fill="#38d39f"/>
      <path id="Path_121" data-name="Path 121" d="M245.851,192.819c-.468,3.382-7.91,12.385-7.91,12.385s-4.839-10.668-4.371-14.05a6.2,6.2,0,1,1,12.281,1.665Z" transform="translate(-166.221 -115.99)" fill="#38d39f"/>
      <path id="Path_122" data-name="Path 122" d="M106.113,109.208c2.446,2.394,13.894,4.84,13.894,4.84s-2.81-11.344-5.256-13.738a6.182,6.182,0,1,0-8.742,8.742c0,.052.052.1.1.156Z" transform="translate(-104.175 -74.113)" opacity="0.25"/>
      <path id="Path_123" data-name="Path 123" d="M115.71,147.264c3.33.676,14.31-3.486,14.31-3.486s-8.534-8.014-11.865-8.69a6.2,6.2,0,0,0-7.285,4.892,6.1,6.1,0,0,0,4.84,7.285Z" transform="translate(-107.319 -91.614)" opacity="0.25"/>
      <path id="Path_124" data-name="Path 124" d="M157.906,190.261c3.226-1.093,10.564-10.2,10.564-10.2s-11.4-2.6-14.623-1.509a6.2,6.2,0,1,0,4.059,11.708Z" transform="translate(-125.994 -112.392)" opacity="0.25"/>
      <path id="Path_125" data-name="Path 125" d="M200.4,214.59c3.382-.572,12.177-8.274,12.177-8.274s-10.772-4.475-14.154-3.955A6.194,6.194,0,0,0,200.4,214.59Z" transform="translate(-146.888 -123.919)" opacity="0.25"/>
      <path id="Path_126" data-name="Path 126" d="M154.685,129.192c0,3.435-6.192,13.322-6.192,13.322s-6.193-9.887-6.193-13.322a6.193,6.193,0,0,1,12.385,0Z" transform="translate(-122.461 -85.876)" opacity="0.25"/>
      <path id="Path_127" data-name="Path 127" d="M203.208,156.884c-1.041,3.278-9.887,10.876-9.887,10.876s-2.966-11.344-1.925-14.571a6.188,6.188,0,0,1,11.813,3.695Z" transform="translate(-145.902 -98.268)" opacity="0.25"/>
      <path id="Path_128" data-name="Path 128" d="M245.851,192.819c-.468,3.382-7.91,12.385-7.91,12.385s-4.839-10.668-4.371-14.05a6.2,6.2,0,1,1,12.281,1.665Z" transform="translate(-166.221 -115.99)" opacity="0.25"/>
      <path id="Path_129" data-name="Path 129" d="M225.049,169.068s-2.81-28.985-19.566-44.388a43.705,43.705,0,0,1-13.634-24.3A73.4,73.4,0,0,1,190.6,86.9" transform="translate(-145.626 -68.561)" fill="none" stroke="#535461" stroke-miterlimit="10" stroke-width="2"/>
      <path id="Path_130" data-name="Path 130" d="M170.077,60.162c1.3,3.174,10.72,10.043,10.72,10.043s2.029-11.5.781-14.675a6.2,6.2,0,1,0-11.5,4.631Z" transform="translate(-135.563 -51.659)" fill="#38d39f"/>
      <path id="Path_131" data-name="Path 131" d="M163.464,98.8c2.81,1.977,14.466,2.6,14.466,2.6s-4.527-10.772-7.337-12.749A6.2,6.2,0,0,0,163.464,98.8Z" transform="translate(-131.344 -68.859)" fill="#38d39f"/>
      <path id="Path_132" data-name="Path 132" d="M184.655,155.109c3.382.26,13.79-5.048,13.79-5.048s-9.367-6.973-12.749-7.285a6.188,6.188,0,1,0-1.041,12.333Z" transform="translate(-140.046 -95.348)" fill="#38d39f"/>
      <path id="Path_133" data-name="Path 133" d="M213.361,194.551c3.33.833,14.466-2.654,14.466-2.654s-8.066-8.482-11.344-9.367a6.188,6.188,0,1,0-3.695,11.813,3.951,3.951,0,0,1,.572.208Z" transform="translate(-154.182 -114.287)" fill="#38d39f"/>
      <path id="Path_134" data-name="Path 134" d="M206.325,97.948c-1.405,3.122-11.084,9.679-11.084,9.679s-1.665-11.552-.26-14.727a6.208,6.208,0,1,1,11.344,5.048Z" transform="translate(-147.457 -69.67)" fill="#38d39f"/>
      <path id="Path_135" data-name="Path 135" d="M237.078,142.939c-2.238,2.55-13.478,5.932-13.478,5.932s1.873-11.552,4.163-14.1a6.195,6.195,0,1,1,9.315,8.17Z" transform="translate(-161.454 -90.515)" fill="#38d39f"/>
      <path id="Path_136" data-name="Path 136" d="M263.228,193.075c-1.769,2.914-12.229,8.118-12.229,8.118s-.1-11.708,1.717-14.623a6.181,6.181,0,1,1,10.512,6.5Z" transform="translate(-174.595 -114.945)" fill="#38d39f"/>
    </g>
    <path id="Path_140" data-name="Path 140" d="M169.4,370.9" transform="translate(575.755 1141.608)" fill="#fff" stroke="#33313f" stroke-miterlimit="10" stroke-width="3"/>
    <path id="Path_142" data-name="Path 142" d="M416.153,164.408s73.373-3.643,86.9,0c0,0-5.724,128.013-3.643,132.176,0,0-93.772,7.337-91.066,0C414.071,280.972,416.153,164.408,416.153,164.408Z" transform="translate(461.177 1241.423)" fill="#fff" stroke="#33313f" stroke-miterlimit="10" stroke-width="1"/>
    <path id="Path_143" data-name="Path 143" d="M478.3,184.6s16.34,25.967,21.856,28.361" transform="translate(427.599 1230.962)" fill="#fff" stroke="#33313f" stroke-miterlimit="10" stroke-width="1"/>
    <path id="Path_144" data-name="Path 144" d="M503.7,184.6S488.094,205,485.7,211.972" transform="translate(424.05 1230.962)" fill="#fff" stroke="#33313f" stroke-miterlimit="10" stroke-width="1"/>
    <path id="Path_145" data-name="Path 145" d="M501.423,270.9h-55.16c-4.163,0-4.163,14.57-4.163,14.57h59.323Z" transform="translate(444.961 1189.57)" fill="#fff" stroke="#33313f" stroke-miterlimit="10" stroke-width="1"/>
    <path id="Path_146" data-name="Path 146" d="M500.832,359.9h-41.11c-3.122,0-3.122,14.57-3.122,14.57h44.232Z" transform="translate(438.007 1146.884)" fill="#fff" stroke="#33313f" stroke-miterlimit="10" stroke-width="1"/>
    <path id="Path_147" data-name="Path 147" d="M501.423,311.678c4.163,0-50.268,4.683-55.16,0-2.55-2.446-4.163,14.571-4.163,14.571h59.323Z" transform="translate(444.961 1170.127)" fill="#fff" stroke="#33313f" stroke-miterlimit="10" stroke-width="1"/>
    <path id="Path_148" data-name="Path 148" d="M488.9,369.083l3.122,3.122,5.724-7.806" transform="translate(422.515 1144.725)" fill="#fff" stroke="#33313f" stroke-miterlimit="10" stroke-width="1"/>
    <path id="Path_149" data-name="Path 149" d="M684.988,167.9s72.853,8.846,86.9,0c0,0-5.724,128.013-3.643,132.176,0,0-96.686,5.412-91.066,0C691.233,286.546,684.988,167.9,684.988,167.9Z" transform="translate(332.323 1238.971)" fill="#fff" stroke="#33313f" stroke-miterlimit="10" stroke-width="1"/>
    <path id="Path_150" data-name="Path 150" d="M711.8,211.4s10.511,16.652,14.05,18.213" transform="translate(315.607 1218.108)" fill="#fff" stroke="#33313f" stroke-miterlimit="10" stroke-width="3"/>
    <path id="Path_151" data-name="Path 151" d="M728.152,211.4s-10.043,13.166-11.552,17.589" transform="translate(313.305 1218.108)" fill="#fff" stroke="#33313f" stroke-miterlimit="10" stroke-width="3"/>
    <path id="Path_152" data-name="Path 152" d="M772.423,277.4h-55.16c-4.163,0-4.163,7.7-4.163,7.7h59.323Z" transform="translate(314.983 1186.453)" fill="#fff" stroke="#33313f" stroke-miterlimit="10" stroke-width="1"/>
    <path id="Path_154" data-name="Path 154" d="M772.423,298.882c4.163,0-50.268,2.5-55.16,0-2.55-1.3-4.163,7.7-4.163,7.7h59.323Z" transform="translate(314.983 1176.211)" fill="#fff" stroke="#33313f" stroke-miterlimit="10" stroke-width="1"/>
    <path id="Path_155" data-name="Path 155" d="M693.2,186.6s80.762,5.984,85.966,2.029" transform="translate(324.528 1230.002)" fill="#fff" stroke="#33313f" stroke-miterlimit="10" stroke-width="1"/>
    <path id="Path_156" data-name="Path 156" d="M838.8,179.164a9.407,9.407,0,0,1,3.383.26,3.858,3.858,0,0,0,3.226-.624" transform="translate(254.695 1233.743)" fill="#fff" stroke="#33313f" stroke-miterlimit="10" stroke-width="1"/>
    <path id="Path_157" data-name="Path 157" d="M837.8,183.5a32.159,32.159,0,0,0,7.077.416" transform="translate(255.174 1231.489)" fill="#fff" stroke="#33313f" stroke-miterlimit="10" stroke-width="1"/>
    <path id="Path_158" data-name="Path 158" d="M837.8,188.476a46.571,46.571,0,0,1,6.036-.676" transform="translate(255.174 1229.427)" fill="#fff" stroke="#33313f" stroke-miterlimit="10" stroke-width="1"/>
    <path id="Path_159" data-name="Path 159" d="M700.553,177.413a6.468,6.468,0,0,0,3.122.624,2.787,2.787,0,0,0,1.926-.416,3.079,3.079,0,0,0,.728-2.446,2.023,2.023,0,0,0-.1-.781,1.512,1.512,0,0,0-.572-.572,6.513,6.513,0,0,0-5.2-.677C698.472,173.979,698.784,176.476,700.553,177.413Z" transform="translate(321.702 1236.587)" fill="#fff" stroke="#33313f" stroke-miterlimit="10" stroke-width="1"/>
    <path id="Path_160" data-name="Path 160" d="M725.48,205.1c-.312,3.851.624,7.7,1.249,11.5a75.943,75.943,0,0,1,.937,14.571c-8.222.52-16.444.624-24.666.364.781,0,.572-17.381.624-18.994.1-2.029-.364-5.568,2.029-6.349,2.5-.833,6.036-.312,8.638-.416C717.987,205.568,721.733,205.36,725.48,205.1Z" transform="translate(319.828 1221.129)" fill="#fff" stroke="#33313f" stroke-miterlimit="10" stroke-width="1"/>
    <path id="Path_163" data-name="Path 163" d="M607.4,280.474s20.295-1.041,23.937,0" transform="translate(365.68 1185.2)" fill="none" stroke="#33313f" stroke-miterlimit="10" stroke-width="1"/>
    <path id="Path_164" data-name="Path 164" d="M651,259.9s8.847,8.846,8.847,10.928-11.448,9.367-11.448,9.367" transform="translate(346.015 1194.846)" fill="none" stroke="#33313f" stroke-miterlimit="10" stroke-width="1"/>
    <circle id="Ellipse_47" data-name="Ellipse 47" cx="11.24" cy="11.24" r="11.24" transform="translate(842.101 1319.5)" fill="#38d39f" opacity="0.1"/>
    <circle id="Ellipse_48" data-name="Ellipse 48" cx="11.24" cy="11.24" r="11.24" transform="translate(1013.357 1335.059)" fill="#38d39f" opacity="0.1"/>
    <circle id="Ellipse_49" data-name="Ellipse 49" cx="11.24" cy="11.24" r="11.24" transform="translate(1133.668 1501.788)" fill="#38d39f" opacity="0.1"/>
    <ellipse id="Ellipse_50" data-name="Ellipse 50" cx="18.89" cy="18.838" rx="18.89" ry="18.838" transform="translate(1163.554 1478.462) rotate(-80.782)" fill="#38d39f" opacity="0.1"/>
    <circle id="Ellipse_51" data-name="Ellipse 51" cx="18.89" cy="18.89" r="18.89" transform="translate(1126.453 1346.319)" fill="#38d39f" opacity="0.1"/>
    <circle id="Ellipse_52" data-name="Ellipse 52" cx="18.89" cy="18.89" r="18.89" transform="translate(736.732 1469.793)" fill="#38d39f" opacity="0.1"/>
  </g>
</svg>
